<?xml version="1.0" standalone="no"?>
<!DOCTYPE svg PUBLIC "-//W3C//DTD SVG 20010904//EN"
 "http://www.w3.org/TR/2001/REC-SVG-20010904/DTD/svg10.dtd">
<svg version="1.0" xmlns="http://www.w3.org/2000/svg"
 width="304.000000pt" height="304.000000pt" viewBox="0 0 304.000000 304.000000"
 preserveAspectRatio="xMidYMid meet">
<metadata>
Created by potrace 1.11, written by Peter Selinger 2001-2013
</metadata>
<g transform="translate(0.000000,304.000000) scale(0.100000,-0.100000)"
fill="#000000" stroke="none">
<path d="M0 1520 l0 -1520 1520 0 1520 0 0 1520 0 1520 -1520 0 -1520 0 0
-1520z m2268 1129 l3 -46 -65 -7 c-221 -22 -416 -172 -416 -318 0 -34 213
-839 227 -857 2 -3 64 14 138 36 l135 40 9 -36 c19 -74 44 -201 40 -204 -2 -2
-59 -24 -126 -51 -120 -47 -123 -49 -117 -74 69 -309 163 -614 223 -730 l38
-72 -333 0 -334 0 40 59 c50 73 70 120 70 165 0 69 -60 439 -73 453 -11 10
-134 -46 -211 -97 -142 -93 -226 -215 -226 -330 0 -55 10 -70 119 -182 l65
-68 -337 0 -338 0 40 53 c55 72 67 104 91 248 12 68 41 225 65 349 24 124 89
459 145 746 l101 520 -25 57 c-29 66 -33 68 -236 91 -219 25 -388 78 -487 153
-70 52 -62 53 287 53 l320 0 0 43 c0 24 3 47 7 50 3 4 266 6 582 5 l576 -3 3
-46z"/>
<path d="M1454 1450 c-33 -171 -59 -310 -58 -310 2 0 64 39 138 86 l134 86
-74 221 c-41 121 -76 222 -77 224 -2 1 -30 -137 -63 -307z"/>
</g>
</svg>
